<svg width="162" height="194" viewBox="0 0 162 194" fill="none" xmlns="http://www.w3.org/2000/svg">
<path d="M162 54.426V79.1273L150.189 67.2712H131.677V54.426H162Z" fill="#121212"/>
<path d="M99.1334 194H62.7322L74.545 182.144V161.526H87.3271V182.144L99.1334 194Z" fill="#121212"/>
<path d="M150.189 12.8468L162 24.7029V0H0V24.7029L11.808 12.8468H74.5449V54.4081H66.0986V54.426H54.6262V67.2712H113.066V98.299H87.327V72.8429H74.5449V98.299H48.8397V39.7409L60.6477 27.8849H24.2464L36.0592 39.7409V54.426H16.5863C14.2052 54.426 11.8841 54.9417 9.76406 55.9015C7.63749 56.8613 5.72325 58.2669 4.14616 60.0563C1.4766 63.0984 0 67.0109 0 71.0713V92.9875C0 96.4428 1.07625 99.8103 3.06667 102.631L4.14129 104.144C7.25334 108.536 12.291 111.144 17.6609 111.144H36.0592V142.854H11.8307L0 130.98V155.699H36.0592V170.294L24.2464 182.144H60.6477L48.8397 170.294V111.144H113.066V142.824H87.327V116.735H74.5449V142.824H54.6262V155.699H95.7668V155.705H113.066V170.294L101.253 182.144H137.684L125.878 170.294V111.144H135.535C140.105 111.144 149.22 111.144 149.22 119.444V134.524C149.22 142.824 140.105 142.824 135.535 142.824H131.672V155.705H143.177C146.224 155.705 149.184 154.965 151.818 153.595C154.452 152.232 156.768 150.239 158.533 147.739C160.789 144.542 162 140.726 162 136.807V114.969C162 112.94 161.635 110.949 160.932 109.081C160.235 107.22 159.196 105.483 157.867 103.96C154.713 100.362 150.171 98.299 145.398 98.299H125.878V39.7409L137.69 27.8849H101.253L113.066 39.7409V54.426H95.7668V54.4081H87.327V12.8468H150.189ZM36.0592 98.299H26.4378C21.8719 98.299 12.7821 98.299 12.7821 89.9991V75.5711C12.7821 67.2712 21.8719 67.2712 26.4378 67.2712H36.0592V98.299Z" fill="#121212"/>
</svg>
